<?xml version="1.0" encoding="UTF-8"?>
<!DOCTYPE svg PUBLIC "-//W3C//DTD SVG 1.1//EN" "http://www.w3.org/Graphics/SVG/1.1/DTD/svg11.dtd">
<svg xmlns="http://www.w3.org/2000/svg" xmlns:xlink="http://www.w3.org/1999/xlink" version="1.1" width="1123px" height="766px" viewBox="-0.5 -0.5 1123 766" style="background-color: rgb(255, 255, 255);"><defs><clipPath id="mx-clip-467-431-382-26-0"><rect x="467" y="431" width="382" height="26"/></clipPath><clipPath id="mx-clip-467-462-382-208-0"><rect x="467" y="462" width="382" height="208"/></clipPath><clipPath id="mx-clip-197-731-132-26-0"><rect x="197" y="731" width="132" height="26"/></clipPath><clipPath id="mx-clip-467-101-382-26-0"><rect x="467" y="101" width="382" height="26"/></clipPath><clipPath id="mx-clip-467-132-382-208-0"><rect x="467" y="132" width="382" height="208"/></clipPath><clipPath id="mx-clip-187-191-142-26-0"><rect x="187" y="191" width="142" height="26"/></clipPath><clipPath id="mx-clip-682-260-132-22-0"><rect x="682" y="260" width="132" height="22"/></clipPath><clipPath id="mx-clip-682-180-132-22-0"><rect x="682" y="180" width="132" height="22"/></clipPath><clipPath id="mx-clip-682-510-132-22-0"><rect x="682" y="510" width="132" height="22"/></clipPath><clipPath id="mx-clip-682-590-132-22-0"><rect x="682" y="590" width="132" height="22"/></clipPath><clipPath id="mx-clip-971-361-132-26-0"><rect x="971" y="361" width="132" height="26"/></clipPath><clipPath id="mx-clip-187-556-182-26-0"><rect x="187" y="556" width="182" height="26"/></clipPath><clipPath id="mx-clip-187-582-182-118-0"><rect x="187" y="582" width="182" height="118"/></clipPath><clipPath id="mx-clip-212-660-132-22-0"><rect x="212" y="660" width="132" height="22"/></clipPath></defs><g><g fill="#000000" font-family="Verdana" font-weight="bold" text-decoration="underline" text-anchor="middle" font-size="24px"><text x="227.17" y="25.5">System configuration diagram</text></g><rect x="172.67" y="125" width="170" height="110" fill="#ffffff" stroke="none" pointer-events="none"/><path d="M 172.67 125 L 302.67 125 L 302.67 140 L 292.67 155 L 172.67 155 Z" fill="#ffffff" stroke="#000000" stroke-miterlimit="10" pointer-events="none"/><path d="M 302.67 125 L 342.67 125 L 342.67 235 L 172.67 235 L 172.67 155" fill="none" stroke="#000000" stroke-miterlimit="10" pointer-events="none"/><g fill="#000000" font-family="Verdana" text-anchor="middle" font-size="16px"><text x="237.17" y="146.5">LoadBalancer</text></g><rect x="442.67" y="35" width="430" height="310" fill="#ffffff" stroke="none" pointer-events="none"/><path d="M 442.67 35 L 572.67 35 L 572.67 50 L 562.67 65 L 442.67 65 Z" fill="#ffffff" stroke="#000000" stroke-miterlimit="10" pointer-events="none"/><path d="M 572.67 35 L 872.67 35 L 872.67 345 L 442.67 345 L 442.67 65" fill="none" stroke="#000000" stroke-miterlimit="10" pointer-events="none"/><g fill="#000000" font-family="Verdana" text-anchor="middle" font-size="16px"><text x="507.17" y="56.5">Worker-1</text></g><rect x="172.67" y="485" width="210" height="280" fill="#ffffff" stroke="none" pointer-events="none"/><path d="M 172.67 485 L 262.67 485 L 262.67 500 L 252.67 515 L 172.67 515 Z" fill="#ffffff" stroke="#000000" stroke-miterlimit="10" pointer-events="none"/><path d="M 262.67 485 L 382.67 485 L 382.67 765 L 172.67 765 L 172.67 515" fill="none" stroke="#000000" stroke-miterlimit="10" pointer-events="none"/><g fill="#000000" font-family="Verdana" text-anchor="middle" font-size="16px"><text x="217.17" y="506.5">Manager</text></g><rect x="442.67" y="365" width="430" height="310" fill="#ffffff" stroke="none" pointer-events="none"/><path d="M 442.67 365 L 572.67 365 L 572.67 380 L 562.67 395 L 442.67 395 Z" fill="#ffffff" stroke="#000000" stroke-miterlimit="10" pointer-events="none"/><path d="M 572.67 365 L 872.67 365 L 872.67 675 L 442.67 675 L 442.67 395" fill="none" stroke="#000000" stroke-miterlimit="10" pointer-events="none"/><g fill="#000000" font-family="Verdana" text-anchor="middle" font-size="16px"><text x="507.17" y="386.5">Worker-2</text></g><path d="M 372.67 610 L 417.7 610 L 417.7 535 L 462.67 535" fill="none" stroke="#bd7000" stroke-width="2" stroke-miterlimit="10" pointer-events="none"/><path d="M 852.67 431 L 852.67 416.7 Q 852.67 405 840.97 405 L 474.37 405 Q 462.67 405 462.67 416.7 L 462.67 431" fill="#ffffff" stroke="#000000" stroke-miterlimit="10" pointer-events="none"/><path d="M 462.67 431 L 462.67 653.3 Q 462.67 665 474.37 665 L 840.97 665 Q 852.67 665 852.67 653.3 L 852.67 431" fill="#ffffff" stroke="#000000" stroke-miterlimit="10" pointer-events="none"/><path d="M 462.67 431 L 852.67 431" fill="none" stroke="#000000" stroke-miterlimit="10" pointer-events="none"/><g fill="#000000" font-family="Verdana" font-weight="bold" font-size="16px"><text x="464.17" y="424.5">Docker Engine</text></g><rect x="462.67" y="431" width="390" height="26" fill="none" stroke="#000000" pointer-events="none"/><g fill="#000000" font-family="Verdana" clip-path="url(#mx-clip-467-431-382-26-0)" font-size="14px"><text x="468.17" y="449.5">Swarm mode</text></g><g fill="#000000" font-family="Verdana" clip-path="url(#mx-clip-467-462-382-208-0)" font-size="14px"><text x="468.17" y="476.5">Run as Worker node</text></g><rect x="662.67" y="465" width="170" height="70" fill="#ffffff" stroke="none" pointer-events="none"/><path d="M 662.67 465 L 822.67 465 L 822.67 470 L 812.67 485 L 662.67 485 Z" fill="#ffffff" stroke="#000000" stroke-miterlimit="10" pointer-events="none"/><path d="M 822.67 465 L 832.67 465 L 832.67 535 L 662.67 535 L 662.67 485" fill="none" stroke="#000000" stroke-miterlimit="10" pointer-events="none"/><g fill="#000000" font-family="Verdana" text-anchor="middle" font-size="16px"><text x="742.17" y="481.5">WebContainer-3</text></g><rect x="662.67" y="545" width="170" height="70" fill="#ffffff" stroke="none" pointer-events="none"/><path d="M 662.67 545 L 822.67 545 L 822.67 550 L 812.67 565 L 662.67 565 Z" fill="#ffffff" stroke="#000000" stroke-miterlimit="10" pointer-events="none"/><path d="M 822.67 545 L 832.67 545 L 832.67 615 L 662.67 615 L 662.67 565" fill="none" stroke="#000000" stroke-miterlimit="10" pointer-events="none"/><g fill="#000000" font-family="Verdana" text-anchor="middle" font-size="16px"><text x="742.17" y="561.5">WebContainer-4</text></g><rect x="958" y="295" width="159" height="110" fill="#ffffff" stroke="none" pointer-events="none"/><path d="M 958 295 L 1048 295 L 1048 310 L 1038 325 L 958 325 Z" fill="#ffffff" stroke="#000000" stroke-miterlimit="10" pointer-events="none"/><path d="M 1048 295 L 1117 295 L 1117 405 L 958 405 L 958 325" fill="none" stroke="#000000" stroke-miterlimit="10" pointer-events="none"/><g fill="#000000" font-family="Verdana" text-anchor="middle" font-size="16px"><text x="1002.5" y="316.5">Database</text></g><g fill="#000000" font-family="Verdana" text-anchor="middle" font-size="20px" transform="rotate(-90,657.67,710)"><text x="657.17" y="718.5">・・・</text></g><ellipse cx="52.67" cy="595" rx="10" ry="10" fill="#ffffff" stroke="#000000" pointer-events="none"/><path d="M 52.67 605 L 52.67 638.33 M 52.67 611.67 L 32.67 611.67 M 52.67 611.67 L 72.67 611.67 M 52.67 638.33 L 32.67 665 M 52.67 638.33 L 72.67 665" fill="none" stroke="#000000" stroke-miterlimit="10" pointer-events="none"/><g fill="#000000" font-family="Verdana" text-anchor="middle" font-size="14px"><rect fill="#ffffff" stroke="none" x="1" y="567" width="105" height="17" stroke-width="0"/><text x="52.17" y="579.5">Administrators</text></g><ellipse cx="52.67" cy="150" rx="10" ry="10" fill="#ffffff" stroke="#000000" pointer-events="none"/><path d="M 52.67 160 L 52.67 193.33 M 52.67 166.67 L 32.67 166.67 M 52.67 166.67 L 72.67 166.67 M 52.67 193.33 L 32.67 220 M 52.67 193.33 L 72.67 220" fill="none" stroke="#000000" stroke-miterlimit="10" pointer-events="none"/><g fill="#000000" font-family="Verdana" text-anchor="middle" font-size="14px"><rect fill="#ffffff" stroke="none" x="33" y="122" width="41" height="17" stroke-width="0"/><text x="52.17" y="134.5">Users</text></g><path d="M 967 361 L 817.67 520.67" fill="none" stroke="#006eaf" stroke-width="2" stroke-miterlimit="10" pointer-events="none"/><path d="M 967 361 L 817.67 600.67" fill="none" stroke="#006eaf" stroke-width="2" stroke-miterlimit="10" pointer-events="none"/><path d="M 82.91 180 L 162.43 180" fill="none" stroke="#000000" stroke-width="2" stroke-miterlimit="10" pointer-events="none"/><path d="M 74.91 180 L 82.91 176 L 82.91 184 Z" fill="#000000" stroke="#000000" stroke-width="2" stroke-miterlimit="10" pointer-events="none"/><path d="M 170.43 180 L 162.43 184 L 162.43 176 Z" fill="#000000" stroke="#000000" stroke-width="2" stroke-miterlimit="10" pointer-events="none"/><g fill="#000000" font-family="Verdana" text-anchor="middle" font-size="14px"><text x="122.38" y="175.5">http</text></g><path d="M 82.91 625 L 162.43 625" fill="none" stroke="#000000" stroke-width="2" stroke-miterlimit="10" pointer-events="none"/><path d="M 74.91 625 L 82.91 621 L 82.91 629 Z" fill="#000000" stroke="#000000" stroke-width="2" stroke-miterlimit="10" pointer-events="none"/><path d="M 170.43 625 L 162.43 629 L 162.43 621 Z" fill="#000000" stroke="#000000" stroke-width="2" stroke-miterlimit="10" pointer-events="none"/><g fill="#000000" font-family="Verdana" text-anchor="middle" font-size="14px"><text x="122.38" y="622.5">ssh</text><text x="122.38" y="639.5">http</text></g><path d="M 332.67 744 L 1037 744 L 1037 387" fill="none" stroke="#2d7600" stroke-width="2" stroke-miterlimit="10" pointer-events="none"/><path d="M 332.67 191 L 482.67 521" fill="none" stroke="#006eaf" stroke-width="2" stroke-miterlimit="10" pointer-events="none"/><g fill="#000000" font-family="Verdana" text-anchor="middle" font-size="14px" transform="rotate(-90,747.67,640)"><text x="747.17" y="645.5">・・・</text></g><path d="M 332.67 731 L 332.67 716.7 Q 332.67 705 320.97 705 L 204.37 705 Q 192.67 705 192.67 716.7 L 192.67 731" fill="#ffffff" stroke="#000000" stroke-miterlimit="10" pointer-events="none"/><path d="M 192.67 731 L 192.67 745.3 Q 192.67 757 204.37 757 L 320.97 757 Q 332.67 757 332.67 745.3 L 332.67 731" fill="#ffffff" stroke="#000000" stroke-miterlimit="10" pointer-events="none"/><path d="M 192.67 731 L 332.67 731" fill="none" stroke="#000000" stroke-miterlimit="10" pointer-events="none"/><g fill="#000000" font-family="Verdana" font-weight="bold" font-size="14px"><text x="194.17" y="723.5">NGINX</text></g><g fill="#000000" font-family="Verdana" font-weight="bold" clip-path="url(#mx-clip-197-731-132-26-0)" text-anchor="middle" font-size="14px"><text x="262.17" y="749.5">phpMyAdmin</text></g><path d="M 677.67 591.67 L 602.67 521" fill="none" stroke="#006eaf" stroke-miterlimit="10" stroke-dasharray="3 3" pointer-events="none"/><path d="M 677.67 511.67 L 602.67 521" fill="none" stroke="#006eaf" stroke-miterlimit="10" stroke-dasharray="3 3" pointer-events="none"/><path d="M 372.67 610 L 417.7 610 L 417.7 385.07 C 426.8 385.07 426.8 371.07 417.7 371.07 L 417.7 371.07 L 417.7 205 L 462.67 205" fill="none" stroke="#bd7000" stroke-width="2" stroke-miterlimit="10" pointer-events="none"/><path d="M 852.67 101 L 852.67 86.7 Q 852.67 75 840.97 75 L 474.37 75 Q 462.67 75 462.67 86.7 L 462.67 101" fill="#ffffff" stroke="#000000" stroke-miterlimit="10" pointer-events="none"/><path d="M 462.67 101 L 462.67 323.3 Q 462.67 335 474.37 335 L 840.97 335 Q 852.67 335 852.67 323.3 L 852.67 101" fill="#ffffff" stroke="#000000" stroke-miterlimit="10" pointer-events="none"/><path d="M 462.67 101 L 852.67 101" fill="none" stroke="#000000" stroke-miterlimit="10" pointer-events="none"/><g fill="#000000" font-family="Verdana" font-weight="bold" font-size="16px"><text x="464.17" y="94.5">Docker Engine</text></g><rect x="462.67" y="101" width="390" height="26" fill="none" stroke="#000000" pointer-events="none"/><g fill="#000000" font-family="Verdana" clip-path="url(#mx-clip-467-101-382-26-0)" font-size="14px"><text x="468.17" y="119.5">Swarm mode</text></g><g fill="#000000" font-family="Verdana" clip-path="url(#mx-clip-467-132-382-208-0)" font-size="14px"><text x="468.17" y="146.5">Run as Worker node</text></g><rect x="662.67" y="215" width="170" height="70" fill="#ffffff" stroke="none" pointer-events="none"/><path d="M 662.67 215 L 822.67 215 L 822.67 220 L 812.67 235 L 662.67 235 Z" fill="#ffffff" stroke="#000000" stroke-miterlimit="10" pointer-events="none"/><path d="M 822.67 215 L 832.67 215 L 832.67 285 L 662.67 285 L 662.67 235" fill="none" stroke="#000000" stroke-miterlimit="10" pointer-events="none"/><g fill="#000000" font-family="Verdana" text-anchor="middle" font-size="16px"><text x="742.17" y="231.5">WebContainer-2</text></g><rect x="662.67" y="135" width="170" height="70" fill="#ffffff" stroke="none" pointer-events="none"/><path d="M 662.67 135 L 822.67 135 L 822.67 140 L 812.67 155 L 662.67 155 Z" fill="#ffffff" stroke="#000000" stroke-miterlimit="10" pointer-events="none"/><path d="M 822.67 135 L 832.67 135 L 832.67 205 L 662.67 205 L 662.67 155" fill="none" stroke="#000000" stroke-miterlimit="10" pointer-events="none"/><g fill="#000000" font-family="Verdana" text-anchor="middle" font-size="16px"><text x="742.17" y="151.5">WebContainer-1</text></g><path d="M 967 361 L 817.67 190.67" fill="none" stroke="#006eaf" stroke-width="2" stroke-miterlimit="10" pointer-events="none"/><path d="M 967 361 L 817.67 270.67" fill="none" stroke="#006eaf" stroke-width="2" stroke-miterlimit="10" pointer-events="none"/><rect x="922.67" y="35" width="60" height="30" fill="#ffffff" stroke="none" pointer-events="none"/><path d="M 922.67 35 L 972.67 35 L 972.67 35 L 962.67 50 L 922.67 50 Z" fill="#ffffff" stroke="#000000" stroke-miterlimit="10" pointer-events="none"/><path d="M 972.67 35 L 982.67 35 L 982.67 65 L 922.67 65 L 922.67 50" fill="none" stroke="#000000" stroke-miterlimit="10" pointer-events="none"/><g fill="#000000" font-family="Helvetica" font-size="12px"><text x="924.17" y="47">Name</text></g><g fill="#000000" font-family="Verdana" font-size="14px"><text x="993.18" y="130.5">IP Network</text></g><path d="M 922.67 155 L 982.67 155" fill="none" stroke="#000000" stroke-miterlimit="10" stroke-dasharray="3 3" pointer-events="none"/><g fill="#000000" font-family="Verdana" font-size="14px"><text x="993.18" y="160.5">Overlay Network</text></g><g fill="#000000" font-family="Verdana" font-size="14px"><text x="993.18" y="95.5">Software</text></g><g fill="#000000" font-family="Verdana" font-size="14px"><text x="993.18" y="55.5">Machine</text></g><path d="M 922.67 124.83 L 982.67 124.83" fill="none" stroke="#000000" stroke-miterlimit="10" pointer-events="none"/><rect x="922.67" y="75" width="60" height="30" rx="4.5" ry="4.5" fill="#ffffff" stroke="#000000" pointer-events="none"/><path d="M 332.67 191 L 482.67 191" fill="none" stroke="#006eaf" stroke-width="2" stroke-miterlimit="10" pointer-events="none"/><g fill="#000000" font-family="Verdana" text-anchor="middle" font-size="14px" transform="rotate(-90,747.67,310)"><text x="747.17" y="315.5">・・・</text></g><path d="M 677.67 261.67 L 602.67 191" fill="none" stroke="#006eaf" stroke-miterlimit="10" stroke-dasharray="3 3" pointer-events="none"/><path d="M 677.67 181.67 L 602.67 191" fill="none" stroke="#006eaf" stroke-miterlimit="10" stroke-dasharray="3 3" pointer-events="none"/><path d="M 332.67 191 L 332.67 176.7 Q 332.67 165 320.97 165 L 194.37 165 Q 182.67 165 182.67 176.7 L 182.67 191" fill="#ffffff" stroke="#000000" stroke-miterlimit="10" pointer-events="none"/><path d="M 182.67 191 L 182.67 205.3 Q 182.67 217 194.37 217 L 320.97 217 Q 332.67 217 332.67 205.3 L 332.67 191" fill="#ffffff" stroke="#000000" stroke-miterlimit="10" pointer-events="none"/><path d="M 182.67 191 L 332.67 191" fill="none" stroke="#000000" stroke-miterlimit="10" pointer-events="none"/><g fill="#000000" font-family="Verdana" font-weight="bold" font-size="14px"><text x="184.17" y="183.5">NGINX</text></g><g fill="#000000" font-family="Verdana" clip-path="url(#mx-clip-187-191-142-26-0)" font-size="12px"><text x="188.17" y="208.5">Reverse proxy</text></g><path d="M 677.67 511.67 L 602.67 191" fill="none" stroke="#006eaf" stroke-miterlimit="10" stroke-dasharray="3 3" pointer-events="none"/><path d="M 677.67 591.67 L 602.67 191" fill="none" stroke="#006eaf" stroke-miterlimit="10" stroke-dasharray="3 3" pointer-events="none"/><path d="M 677.67 181.67 L 602.67 521" fill="none" stroke="#006eaf" stroke-miterlimit="10" stroke-dasharray="3 3" pointer-events="none"/><path d="M 677.67 261.67 L 602.67 521" fill="none" stroke="#006eaf" stroke-miterlimit="10" stroke-dasharray="3 3" pointer-events="none"/><rect x="482.67" y="160" width="120" height="62" rx="9.3" ry="9.3" fill="#ffffff" stroke="#000000" pointer-events="none"/><g fill="#000000" font-family="Verdana" font-weight="bold" text-anchor="middle" font-size="14px"><text x="542.17" y="179.5">Docker</text><text x="542.17" y="196.5">Swarm</text><text x="542.17" y="213.5">LoadBalancer</text></g><path d="M 817.67 259.67 L 817.67 249.77 Q 817.67 241.67 809.57 241.67 L 685.77 241.67 Q 677.67 241.67 677.67 249.77 L 677.67 259.67" fill="#ffffff" stroke="#000000" stroke-miterlimit="10" pointer-events="none"/><path d="M 677.67 259.67 L 677.67 273.57 Q 677.67 281.67 685.77 281.67 L 809.57 281.67 Q 817.67 281.67 817.67 273.57 L 817.67 259.67" fill="#ffffff" stroke="#000000" stroke-miterlimit="10" pointer-events="none"/><path d="M 677.67 259.67 L 817.67 259.67" fill="none" stroke="#000000" stroke-miterlimit="10" pointer-events="none"/><g fill="#000000" font-family="Verdana" font-weight="bold" font-size="14px"><text x="679.17" y="256.17">NGINX</text></g><g fill="#000000" font-family="Verdana" font-weight="bold" clip-path="url(#mx-clip-682-260-132-22-0)" text-anchor="middle" font-size="14px"><text x="747.17" y="276.17">Web Application</text></g><path d="M 817.67 179.67 L 817.67 169.77 Q 817.67 161.67 809.57 161.67 L 685.77 161.67 Q 677.67 161.67 677.67 169.77 L 677.67 179.67" fill="#ffffff" stroke="#000000" stroke-miterlimit="10" pointer-events="none"/><path d="M 677.67 179.67 L 677.67 193.57 Q 677.67 201.67 685.77 201.67 L 809.57 201.67 Q 817.67 201.67 817.67 193.57 L 817.67 179.67" fill="#ffffff" stroke="#000000" stroke-miterlimit="10" pointer-events="none"/><path d="M 677.67 179.67 L 817.67 179.67" fill="none" stroke="#000000" stroke-miterlimit="10" pointer-events="none"/><g fill="#000000" font-family="Verdana" font-weight="bold" font-size="14px"><text x="679.17" y="176.17">NGINX</text></g><g fill="#000000" font-family="Verdana" font-weight="bold" clip-path="url(#mx-clip-682-180-132-22-0)" text-anchor="middle" font-size="14px"><text x="747.17" y="196.17">Web Application</text></g><rect x="482.67" y="490" width="120" height="62" rx="9.3" ry="9.3" fill="#ffffff" stroke="#000000" pointer-events="none"/><g fill="#000000" font-family="Verdana" font-weight="bold" text-anchor="middle" font-size="14px"><text x="542.17" y="509.5">Docker</text><text x="542.17" y="526.5">Swarm</text><text x="542.17" y="543.5">LoadBalancer</text></g><path d="M 817.67 509.67 L 817.67 499.77 Q 817.67 491.67 809.57 491.67 L 685.77 491.67 Q 677.67 491.67 677.67 499.77 L 677.67 509.67" fill="#ffffff" stroke="#000000" stroke-miterlimit="10" pointer-events="none"/><path d="M 677.67 509.67 L 677.67 523.57 Q 677.67 531.67 685.77 531.67 L 809.57 531.67 Q 817.67 531.67 817.67 523.57 L 817.67 509.67" fill="#ffffff" stroke="#000000" stroke-miterlimit="10" pointer-events="none"/><path d="M 677.67 509.67 L 817.67 509.67" fill="none" stroke="#000000" stroke-miterlimit="10" pointer-events="none"/><g fill="#000000" font-family="Verdana" font-weight="bold" font-size="14px"><text x="679.17" y="506.17">NGINX</text></g><g fill="#000000" font-family="Verdana" font-weight="bold" clip-path="url(#mx-clip-682-510-132-22-0)" text-anchor="middle" font-size="14px"><text x="747.17" y="526.17">Web Application</text></g><path d="M 817.67 589.67 L 817.67 579.77 Q 817.67 571.67 809.57 571.67 L 685.77 571.67 Q 677.67 571.67 677.67 579.77 L 677.67 589.67" fill="#ffffff" stroke="#000000" stroke-miterlimit="10" pointer-events="none"/><path d="M 677.67 589.67 L 677.67 603.57 Q 677.67 611.67 685.77 611.67 L 809.57 611.67 Q 817.67 611.67 817.67 603.57 L 817.67 589.67" fill="#ffffff" stroke="#000000" stroke-miterlimit="10" pointer-events="none"/><path d="M 677.67 589.67 L 817.67 589.67" fill="none" stroke="#000000" stroke-miterlimit="10" pointer-events="none"/><g fill="#000000" font-family="Verdana" font-weight="bold" font-size="14px"><text x="679.17" y="586.17">NGINX</text></g><g fill="#000000" font-family="Verdana" font-weight="bold" clip-path="url(#mx-clip-682-590-132-22-0)" text-anchor="middle" font-size="14px"><text x="747.17" y="606.17">Web Application</text></g><path d="M 1107 361 L 1107 346.7 Q 1107 335 1095.3 335 L 978.7 335 Q 967 335 967 346.7 L 967 361" fill="#ffffff" stroke="#000000" stroke-miterlimit="10" pointer-events="none"/><path d="M 967 361 L 967 375.3 Q 967 387 978.7 387 L 1095.3 387 Q 1107 387 1107 375.3 L 1107 361" fill="#ffffff" stroke="#000000" stroke-miterlimit="10" pointer-events="none"/><path d="M 967 361 L 1107 361" fill="none" stroke="#000000" stroke-miterlimit="10" pointer-events="none"/><g fill="#000000" font-family="Verdana" font-weight="bold" font-size="14px"><text x="968.5" y="353.5">MariaDB</text></g><g fill="#000000" font-family="Verdana" clip-path="url(#mx-clip-971-361-132-26-0)" font-size="12px"><text x="972.5" y="378.5">Record Data</text></g><path d="M 372.67 551 L 372.67 536.7 Q 372.67 525 360.97 525 L 194.37 525 Q 182.67 525 182.67 536.7 L 182.67 551" fill="#ffffff" stroke="#000000" stroke-miterlimit="10" pointer-events="none"/><path d="M 182.67 551 L 182.67 683.3 Q 182.67 695 194.37 695 L 360.97 695 Q 372.67 695 372.67 683.3 L 372.67 551" fill="#ffffff" stroke="#000000" stroke-miterlimit="10" pointer-events="none"/><path d="M 182.67 551 L 372.67 551" fill="none" stroke="#000000" stroke-miterlimit="10" pointer-events="none"/><g fill="#000000" font-family="Verdana" font-weight="bold" font-size="16px"><text x="184.17" y="544.5">Docker Engine</text></g><rect x="182.67" y="551" width="190" height="26" fill="none" stroke="#000000" pointer-events="none"/><g fill="#000000" font-family="Verdana" clip-path="url(#mx-clip-187-556-182-26-0)" font-size="14px"><text x="188.17" y="570.5">Swarm mode</text></g><g fill="#000000" font-family="Verdana" clip-path="url(#mx-clip-187-582-182-118-0)" font-size="14px"><text x="188.17" y="596.5">Run as manager node</text></g><rect x="192.67" y="615" width="170" height="70" fill="#ffffff" stroke="none" pointer-events="none"/><path d="M 192.67 615 L 357.67 615 L 357.67 620 L 347.67 635 L 192.67 635 Z" fill="#ffffff" stroke="#000000" stroke-miterlimit="10" pointer-events="none"/><path d="M 357.67 615 L 362.67 615 L 362.67 685 L 192.67 685 L 192.67 635" fill="none" stroke="#000000" stroke-miterlimit="10" pointer-events="none"/><g fill="#000000" font-family="Verdana" text-anchor="middle" font-size="16px"><text x="274.67" y="631.5">RegistryContainer</text></g><path d="M 347.67 659.67 L 347.67 649.77 Q 347.67 641.67 339.57 641.67 L 215.77 641.67 Q 207.67 641.67 207.67 649.77 L 207.67 659.67" fill="#ffffff" stroke="#000000" stroke-miterlimit="10" pointer-events="none"/><path d="M 207.67 659.67 L 207.67 673.57 Q 207.67 681.67 215.77 681.67 L 339.57 681.67 Q 347.67 681.67 347.67 673.57 L 347.67 659.67" fill="#ffffff" stroke="#000000" stroke-miterlimit="10" pointer-events="none"/><path d="M 207.67 659.67 L 347.67 659.67" fill="none" stroke="#000000" stroke-miterlimit="10" pointer-events="none"/><g fill="#000000" font-family="Verdana" font-weight="bold" font-size="14px"><text x="209.17" y="656.17">Docker Registry</text></g><g fill="#000000" font-family="Verdana" clip-path="url(#mx-clip-212-660-132-22-0)" text-anchor="middle" font-size="12px"><text x="277.17" y="675.17">Put docker images</text></g></g></svg>
